<?xml version="1.0" standalone="no"?>
<!DOCTYPE svg PUBLIC "-//W3C//DTD SVG 20010904//EN"
 "http://www.w3.org/TR/2001/REC-SVG-20010904/DTD/svg10.dtd">
<svg version="1.0" xmlns="http://www.w3.org/2000/svg"
 width="200.000000pt" height="200.000000pt" viewBox="0 0 200.000000 200.000000"
 preserveAspectRatio="xMidYMid meet">
<metadata>
Created by potrace 1.14, written by Peter Selinger 2001-2017
</metadata>
<g transform="translate(0.000000,200.000000) scale(0.100000,-0.100000)"
fill="#000000" stroke="none">
<path d="M892 1945 c-11 -8 -22 -12 -24 -9 -10 10 -67 -67 -77 -103 -12 -43 0
-111 21 -124 7 -5 9 -9 4 -9 -21 0 62 -60 92 -66 35 -7 44 -16 48 -49 2 -11
10 -58 18 -105 l15 -85 -23 -20 c-33 -28 -47 -59 -48 -107 0 -40 -16 -68 -37
-68 -6 0 -18 -8 -28 -19 -11 -11 -28 -17 -43 -14 -112 16 -134 15 -166 -14
-17 -15 -36 -37 -42 -48 -13 -27 -9 -105 7 -114 7 -5 11 -12 10 -17 -2 -5 12
-19 31 -31 89 -60 203 3 204 113 1 36 6 49 26 65 48 38 79 50 99 40 45 -24
141 -17 141 10 0 9 57 -17 70 -32 3 -3 26 -20 51 -37 l47 -31 -5 -61 c-4 -42
-2 -60 6 -60 7 0 10 -4 7 -9 -10 -16 46 -73 91 -93 41 -18 108 -17 123 1 3 4
18 12 33 19 15 7 25 17 22 22 -3 6 -1 10 5 10 17 0 41 66 39 108 -3 55 -40
122 -68 122 -6 0 -11 4 -11 9 0 17 -83 33 -113 22 -15 -6 -27 -8 -27 -5 0 3
-13 -4 -28 -14 -31 -23 -36 -22 -118 39 -29 21 -54 35 -58 32 -3 -4 -6 14 -7
38 -1 59 -5 81 -19 89 -7 4 -11 11 -9 16 3 12 -73 55 -88 49 -7 -2 -13 3 -14
13 -1 21 -5 47 -22 145 l-14 78 27 14 c59 31 96 141 64 193 -8 12 -11 22 -7
22 13 0 -42 52 -72 68 -39 20 -108 24 -133 7z m101 -66 c31 -14 56 -58 53 -92
-7 -64 -69 -105 -129 -84 -72 24 -84 130 -20 169 33 20 62 22 96 7z m95 -555
c15 -10 22 -25 22 -48 0 -37 -12 -51 -53 -61 -62 -16 -97 73 -44 110 27 19 47
19 75 -1z m-313 -238 c27 -42 -4 -96 -55 -96 -62 0 -79 88 -21 116 29 15 58 7
76 -20z m723 -5 c28 -15 42 -42 42 -83 -1 -52 -51 -101 -96 -93 -10 2 -25 4
-32 4 -27 2 -62 53 -62 90 1 77 78 120 148 82z"/>
<path d="M538 865 c0 0 -2 -154 -3 -343 -2 -304 -4 -344 -19 -361 -15 -17 -33
-18 -181 -17 -120 1 -168 4 -177 14 -15 15 -20 282 -5 282 4 0 6 4 3 8 -7 12
9 13 170 15 l141 2 0 71 0 71 -151 -1 c-144 -2 -226 -16 -226 -38 0 -4 -8 -8
-17 -8 -9 0 -13 -3 -10 -7 4 -3 -2 -13 -13 -20 -11 -8 -18 -19 -15 -24 4 -5 3
-9 -2 -9 -23 0 -33 -61 -33 -194 1 -184 22 -236 117 -285 39 -19 58 -21 223
-21 130 0 180 3 180 12 0 6 3 9 6 5 10 -10 66 23 97 56 15 17 32 47 38 67 6
22 9 164 7 379 l-3 345 -63 0 c-34 1 -63 1 -64 1z"/>
<path d="M1600 708 c0 -86 -2 -98 -17 -99 -10 -1 -53 -1 -95 -2 l-78 0 0 -69
c0 -47 4 -68 13 -69 6 -1 48 -2 92 -3 l80 -1 2 -160 c1 -88 2 -193 3 -232 l0
-73 73 0 72 0 0 232 -1 233 128 0 128 0 0 71 0 71 -117 1 c-65 0 -124 1 -130
1 -10 1 -13 28 -13 99 l0 99 -70 0 -70 -1 0 -98z"/>
<path d="M937 588 c-54 -24 -74 -44 -100 -93 -18 -36 -20 -59 -21 -267 l-1
-228 71 0 71 0 -1 208 c-1 114 0 215 2 224 7 28 59 36 220 35 85 -1 157 0 161
3 4 3 8 35 8 71 l1 66 -185 0 c-158 -1 -190 -3 -226 -19z"/>
</g>
</svg>
